<mxfile host="app.diagrams.net" modified="2021-08-18T06:54:27.783Z" agent="5.0 (Windows NT 10.0; Win64; x64) AppleWebKit/537.36 (KHTML, like Gecko) Chrome/90.0.4430.72 Safari/537.36" etag="-ZrrgENS0TUuefy0Nu3w" version="14.9.7" type="github">
  <diagram id="oA9ygaMnBOQTWNAMh8Z7" name="第 1 页">
    <mxGraphModel dx="1185" dy="1462" grid="1" gridSize="10" guides="1" tooltips="1" connect="1" arrows="1" fold="1" page="1" pageScale="1" pageWidth="1169" pageHeight="827" math="0" shadow="0">
      <root>
        <mxCell id="0" />
        <mxCell id="1" parent="0" />
        <mxCell id="gMdUcFWDn8KjLpwVatEw-1" value="sc_object" style="swimlane;fontStyle=1;align=center;verticalAlign=top;childLayout=stackLayout;horizontal=1;startSize=26;horizontalStack=0;resizeParent=1;resizeParentMax=0;resizeLast=0;collapsible=1;marginBottom=0;" parent="1" vertex="1">
          <mxGeometry x="630" y="-770" width="230" height="164" as="geometry">
            <mxRectangle x="310" y="-790" width="105" height="26" as="alternateBounds" />
          </mxGeometry>
        </mxCell>
        <mxCell id="gMdUcFWDn8KjLpwVatEw-2" value="# m_name: const char*" style="text;strokeColor=none;fillColor=none;align=left;verticalAlign=top;spacingLeft=4;spacingRight=4;overflow=hidden;rotatable=0;points=[[0,0.5],[1,0.5]];portConstraint=eastwest;" parent="gMdUcFWDn8KjLpwVatEw-1" vertex="1">
          <mxGeometry y="26" width="230" height="26" as="geometry" />
        </mxCell>
        <mxCell id="gMdUcFWDn8KjLpwVatEw-37" value="# m_parent: sc_object*" style="text;strokeColor=none;fillColor=none;align=left;verticalAlign=top;spacingLeft=4;spacingRight=4;overflow=hidden;rotatable=0;points=[[0,0.5],[1,0.5]];portConstraint=eastwest;" parent="gMdUcFWDn8KjLpwVatEw-1" vertex="1">
          <mxGeometry y="52" width="230" height="26" as="geometry" />
        </mxCell>
        <mxCell id="gMdUcFWDn8KjLpwVatEw-38" value="# m_child_objects: vector&lt;sc_object*&gt;" style="text;strokeColor=none;fillColor=none;align=left;verticalAlign=top;spacingLeft=4;spacingRight=4;overflow=hidden;rotatable=0;points=[[0,0.5],[1,0.5]];portConstraint=eastwest;" parent="gMdUcFWDn8KjLpwVatEw-1" vertex="1">
          <mxGeometry y="78" width="230" height="26" as="geometry" />
        </mxCell>
        <mxCell id="gMdUcFWDn8KjLpwVatEw-36" value="# m_child_evnets: vector&lt;sc_event*&gt;" style="text;strokeColor=none;fillColor=none;align=left;verticalAlign=top;spacingLeft=4;spacingRight=4;overflow=hidden;rotatable=0;points=[[0,0.5],[1,0.5]];portConstraint=eastwest;" parent="gMdUcFWDn8KjLpwVatEw-1" vertex="1">
          <mxGeometry y="104" width="230" height="26" as="geometry" />
        </mxCell>
        <mxCell id="gMdUcFWDn8KjLpwVatEw-3" value="" style="line;strokeWidth=1;fillColor=none;align=left;verticalAlign=middle;spacingTop=-1;spacingLeft=3;spacingRight=3;rotatable=0;labelPosition=right;points=[];portConstraint=eastwest;" parent="gMdUcFWDn8KjLpwVatEw-1" vertex="1">
          <mxGeometry y="130" width="230" height="8" as="geometry" />
        </mxCell>
        <mxCell id="gMdUcFWDn8KjLpwVatEw-4" value="+ gen_unique_name(type): type" style="text;strokeColor=none;fillColor=none;align=left;verticalAlign=top;spacingLeft=4;spacingRight=4;overflow=hidden;rotatable=0;points=[[0,0.5],[1,0.5]];portConstraint=eastwest;" parent="gMdUcFWDn8KjLpwVatEw-1" vertex="1">
          <mxGeometry y="138" width="230" height="26" as="geometry" />
        </mxCell>
        <mxCell id="gMdUcFWDn8KjLpwVatEw-5" value="sc_porcess_b" style="swimlane;fontStyle=1;align=center;verticalAlign=top;childLayout=stackLayout;horizontal=1;startSize=26;horizontalStack=0;resizeParent=1;resizeParentMax=0;resizeLast=0;collapsible=1;marginBottom=0;" parent="1" vertex="1">
          <mxGeometry x="820" y="-484" width="200" height="172" as="geometry">
            <mxRectangle x="770" y="-510" width="105" height="26" as="alternateBounds" />
          </mxGeometry>
        </mxCell>
        <mxCell id="gMdUcFWDn8KjLpwVatEw-6" value="# m_type: process_type { METHOD, THREAD }" style="text;strokeColor=none;fillColor=none;align=left;verticalAlign=top;spacingLeft=4;spacingRight=4;overflow=hidden;rotatable=0;points=[[0,0.5],[1,0.5]];portConstraint=eastwest;whiteSpace=wrap;" parent="gMdUcFWDn8KjLpwVatEw-5" vertex="1">
          <mxGeometry y="26" width="200" height="34" as="geometry" />
        </mxCell>
        <mxCell id="gMdUcFWDn8KjLpwVatEw-56" value="# m_callback: SC_ENTRY_FUNC" style="text;strokeColor=none;fillColor=none;align=left;verticalAlign=top;spacingLeft=4;spacingRight=4;overflow=hidden;rotatable=0;points=[[0,0.5],[1,0.5]];portConstraint=eastwest;" parent="gMdUcFWDn8KjLpwVatEw-5" vertex="1">
          <mxGeometry y="60" width="200" height="26" as="geometry" />
        </mxCell>
        <mxCell id="gMdUcFWDn8KjLpwVatEw-57" value="# m_host: process_host*" style="text;strokeColor=none;fillColor=none;align=left;verticalAlign=top;spacingLeft=4;spacingRight=4;overflow=hidden;rotatable=0;points=[[0,0.5],[1,0.5]];portConstraint=eastwest;" parent="gMdUcFWDn8KjLpwVatEw-5" vertex="1">
          <mxGeometry y="86" width="200" height="26" as="geometry" />
        </mxCell>
        <mxCell id="gMdUcFWDn8KjLpwVatEw-7" value="" style="line;strokeWidth=1;fillColor=none;align=left;verticalAlign=middle;spacingTop=-1;spacingLeft=3;spacingRight=3;rotatable=0;labelPosition=right;points=[];portConstraint=eastwest;" parent="gMdUcFWDn8KjLpwVatEw-5" vertex="1">
          <mxGeometry y="112" width="200" height="8" as="geometry" />
        </mxCell>
        <mxCell id="gMdUcFWDn8KjLpwVatEw-58" value="+ host_call(): void" style="text;strokeColor=none;fillColor=none;align=left;verticalAlign=top;spacingLeft=4;spacingRight=4;overflow=hidden;rotatable=0;points=[[0,0.5],[1,0.5]];portConstraint=eastwest;" parent="gMdUcFWDn8KjLpwVatEw-5" vertex="1">
          <mxGeometry y="120" width="200" height="26" as="geometry" />
        </mxCell>
        <mxCell id="gMdUcFWDn8KjLpwVatEw-8" value="+ trigger_call(): void" style="text;strokeColor=none;fillColor=none;align=left;verticalAlign=top;spacingLeft=4;spacingRight=4;overflow=hidden;rotatable=0;points=[[0,0.5],[1,0.5]];portConstraint=eastwest;" parent="gMdUcFWDn8KjLpwVatEw-5" vertex="1">
          <mxGeometry y="146" width="200" height="26" as="geometry" />
        </mxCell>
        <mxCell id="gMdUcFWDn8KjLpwVatEw-9" value="process_thread" style="swimlane;fontStyle=1;align=center;verticalAlign=top;childLayout=stackLayout;horizontal=1;startSize=26;horizontalStack=0;resizeParent=1;resizeParentMax=0;resizeLast=0;collapsible=1;marginBottom=0;" parent="1" vertex="1">
          <mxGeometry x="945" y="-200" width="160" height="34" as="geometry">
            <mxRectangle x="855" y="-299" width="135" height="26" as="alternateBounds" />
          </mxGeometry>
        </mxCell>
        <mxCell id="gMdUcFWDn8KjLpwVatEw-11" value="" style="line;strokeWidth=1;fillColor=none;align=left;verticalAlign=middle;spacingTop=-1;spacingLeft=3;spacingRight=3;rotatable=0;labelPosition=right;points=[];portConstraint=eastwest;" parent="gMdUcFWDn8KjLpwVatEw-9" vertex="1">
          <mxGeometry y="26" width="160" height="8" as="geometry" />
        </mxCell>
        <mxCell id="gMdUcFWDn8KjLpwVatEw-13" value="process_method" style="swimlane;fontStyle=1;align=center;verticalAlign=top;childLayout=stackLayout;horizontal=1;startSize=26;horizontalStack=0;resizeParent=1;resizeParentMax=0;resizeLast=0;collapsible=1;marginBottom=0;" parent="1" vertex="1">
          <mxGeometry x="750" y="-200" width="160" height="34" as="geometry">
            <mxRectangle x="660" y="-299" width="135" height="26" as="alternateBounds" />
          </mxGeometry>
        </mxCell>
        <mxCell id="gMdUcFWDn8KjLpwVatEw-15" value="" style="line;strokeWidth=1;fillColor=none;align=left;verticalAlign=middle;spacingTop=-1;spacingLeft=3;spacingRight=3;rotatable=0;labelPosition=right;points=[];portConstraint=eastwest;" parent="gMdUcFWDn8KjLpwVatEw-13" vertex="1">
          <mxGeometry y="26" width="160" height="8" as="geometry" />
        </mxCell>
        <mxCell id="gMdUcFWDn8KjLpwVatEw-21" value="Extends" style="endArrow=block;endSize=16;endFill=0;html=1;edgeStyle=orthogonalEdgeStyle;exitX=0.5;exitY=0;exitDx=0;exitDy=0;" parent="1" source="gMdUcFWDn8KjLpwVatEw-5" target="gMdUcFWDn8KjLpwVatEw-1" edge="1">
          <mxGeometry width="160" relative="1" as="geometry">
            <mxPoint x="1020" y="-540" as="sourcePoint" />
            <mxPoint x="1180" y="-540" as="targetPoint" />
          </mxGeometry>
        </mxCell>
        <mxCell id="gMdUcFWDn8KjLpwVatEw-22" value="Extends" style="endArrow=block;endSize=16;endFill=0;html=1;exitX=0.5;exitY=0;exitDx=0;exitDy=0;entryX=0.5;entryY=1;entryDx=0;entryDy=0;edgeStyle=orthogonalEdgeStyle;" parent="1" source="gMdUcFWDn8KjLpwVatEw-9" target="gMdUcFWDn8KjLpwVatEw-5" edge="1">
          <mxGeometry width="160" relative="1" as="geometry">
            <mxPoint x="892.5" y="-370" as="sourcePoint" />
            <mxPoint x="750" y="-330" as="targetPoint" />
          </mxGeometry>
        </mxCell>
        <mxCell id="gMdUcFWDn8KjLpwVatEw-23" value="Extends" style="endArrow=block;endSize=16;endFill=0;html=1;exitX=0.5;exitY=0;exitDx=0;exitDy=0;entryX=0.5;entryY=1;entryDx=0;entryDy=0;edgeStyle=orthogonalEdgeStyle;" parent="1" source="gMdUcFWDn8KjLpwVatEw-13" target="gMdUcFWDn8KjLpwVatEw-5" edge="1">
          <mxGeometry width="160" relative="1" as="geometry">
            <mxPoint x="1002.5" y="-259" as="sourcePoint" />
            <mxPoint x="892.5" y="-344" as="targetPoint" />
          </mxGeometry>
        </mxCell>
        <mxCell id="gMdUcFWDn8KjLpwVatEw-46" value="friend" style="edgeStyle=orthogonalEdgeStyle;rounded=0;orthogonalLoop=1;jettySize=auto;html=1;startArrow=classic;startFill=1;" parent="1" source="gMdUcFWDn8KjLpwVatEw-25" target="gMdUcFWDn8KjLpwVatEw-40" edge="1">
          <mxGeometry relative="1" as="geometry" />
        </mxCell>
        <mxCell id="gMdUcFWDn8KjLpwVatEw-25" value="sc_module" style="swimlane;fontStyle=1;align=center;verticalAlign=top;childLayout=stackLayout;horizontal=1;startSize=26;horizontalStack=0;resizeParent=1;resizeParentMax=0;resizeLast=0;collapsible=1;marginBottom=0;" parent="1" vertex="1">
          <mxGeometry x="500" y="-480" width="160" height="138" as="geometry">
            <mxRectangle x="170" y="-500" width="105" height="26" as="alternateBounds" />
          </mxGeometry>
        </mxCell>
        <mxCell id="gMdUcFWDn8KjLpwVatEw-26" value="# sensitive: sensitives" style="text;strokeColor=none;fillColor=none;align=left;verticalAlign=top;spacingLeft=4;spacingRight=4;overflow=hidden;rotatable=0;points=[[0,0.5],[1,0.5]];portConstraint=eastwest;" parent="gMdUcFWDn8KjLpwVatEw-25" vertex="1">
          <mxGeometry y="26" width="160" height="26" as="geometry" />
        </mxCell>
        <mxCell id="gMdUcFWDn8KjLpwVatEw-27" value="" style="line;strokeWidth=1;fillColor=none;align=left;verticalAlign=middle;spacingTop=-1;spacingLeft=3;spacingRight=3;rotatable=0;labelPosition=right;points=[];portConstraint=eastwest;" parent="gMdUcFWDn8KjLpwVatEw-25" vertex="1">
          <mxGeometry y="52" width="160" height="8" as="geometry" />
        </mxCell>
        <mxCell id="gMdUcFWDn8KjLpwVatEw-28" value="+ wait(): void" style="text;strokeColor=none;fillColor=none;align=left;verticalAlign=top;spacingLeft=4;spacingRight=4;overflow=hidden;rotatable=0;points=[[0,0.5],[1,0.5]];portConstraint=eastwest;" parent="gMdUcFWDn8KjLpwVatEw-25" vertex="1">
          <mxGeometry y="60" width="160" height="26" as="geometry" />
        </mxCell>
        <mxCell id="gMdUcFWDn8KjLpwVatEw-39" value="+ dont_initialize(): void" style="text;strokeColor=none;fillColor=none;align=left;verticalAlign=top;spacingLeft=4;spacingRight=4;overflow=hidden;rotatable=0;points=[[0,0.5],[1,0.5]];portConstraint=eastwest;" parent="gMdUcFWDn8KjLpwVatEw-25" vertex="1">
          <mxGeometry y="86" width="160" height="26" as="geometry" />
        </mxCell>
        <mxCell id="gMdUcFWDn8KjLpwVatEw-47" value="+ end_module(): void" style="text;strokeColor=none;fillColor=none;align=left;verticalAlign=top;spacingLeft=4;spacingRight=4;overflow=hidden;rotatable=0;points=[[0,0.5],[1,0.5]];portConstraint=eastwest;" parent="gMdUcFWDn8KjLpwVatEw-25" vertex="1">
          <mxGeometry y="112" width="160" height="26" as="geometry" />
        </mxCell>
        <mxCell id="gMdUcFWDn8KjLpwVatEw-29" value="process_host" style="swimlane;fontStyle=1;align=center;verticalAlign=top;childLayout=stackLayout;horizontal=1;startSize=26;horizontalStack=0;resizeParent=1;resizeParentMax=0;resizeLast=0;collapsible=1;marginBottom=0;" parent="1" vertex="1">
          <mxGeometry x="350" y="-770" width="230" height="114" as="geometry">
            <mxRectangle x="65" y="-750" width="105" height="26" as="alternateBounds" />
          </mxGeometry>
        </mxCell>
        <mxCell id="gMdUcFWDn8KjLpwVatEw-30" value="- m_trigger_evt: sc_event *" style="text;strokeColor=none;fillColor=none;align=left;verticalAlign=top;spacingLeft=4;spacingRight=4;overflow=hidden;rotatable=0;points=[[0,0.5],[1,0.5]];portConstraint=eastwest;" parent="gMdUcFWDn8KjLpwVatEw-29" vertex="1">
          <mxGeometry y="26" width="230" height="26" as="geometry" />
        </mxCell>
        <mxCell id="gMdUcFWDn8KjLpwVatEw-35" value="- m_processes: vector&lt;process_handle&gt;" style="text;strokeColor=none;fillColor=none;align=left;verticalAlign=top;spacingLeft=4;spacingRight=4;overflow=hidden;rotatable=0;points=[[0,0.5],[1,0.5]];portConstraint=eastwest;whiteSpace=wrap;" parent="gMdUcFWDn8KjLpwVatEw-29" vertex="1">
          <mxGeometry y="52" width="230" height="28" as="geometry" />
        </mxCell>
        <mxCell id="gMdUcFWDn8KjLpwVatEw-31" value="" style="line;strokeWidth=1;fillColor=none;align=left;verticalAlign=middle;spacingTop=-1;spacingLeft=3;spacingRight=3;rotatable=0;labelPosition=right;points=[];portConstraint=eastwest;" parent="gMdUcFWDn8KjLpwVatEw-29" vertex="1">
          <mxGeometry y="80" width="230" height="8" as="geometry" />
        </mxCell>
        <mxCell id="gMdUcFWDn8KjLpwVatEw-32" value="+ _next_trigger(type): type" style="text;strokeColor=none;fillColor=none;align=left;verticalAlign=top;spacingLeft=4;spacingRight=4;overflow=hidden;rotatable=0;points=[[0,0.5],[1,0.5]];portConstraint=eastwest;" parent="gMdUcFWDn8KjLpwVatEw-29" vertex="1">
          <mxGeometry y="88" width="230" height="26" as="geometry" />
        </mxCell>
        <mxCell id="gMdUcFWDn8KjLpwVatEw-33" value="Extends" style="endArrow=block;endSize=16;endFill=0;html=1;edgeStyle=orthogonalEdgeStyle;exitX=0.5;exitY=0;exitDx=0;exitDy=0;" parent="1" source="gMdUcFWDn8KjLpwVatEw-25" target="gMdUcFWDn8KjLpwVatEw-1" edge="1">
          <mxGeometry width="160" relative="1" as="geometry">
            <mxPoint x="1130" y="-617" as="sourcePoint" />
            <mxPoint x="682.5" y="-734" as="targetPoint" />
          </mxGeometry>
        </mxCell>
        <mxCell id="gMdUcFWDn8KjLpwVatEw-34" value="Extends" style="endArrow=block;endSize=16;endFill=0;html=1;edgeStyle=orthogonalEdgeStyle;exitX=0.5;exitY=0;exitDx=0;exitDy=0;" parent="1" source="gMdUcFWDn8KjLpwVatEw-25" target="gMdUcFWDn8KjLpwVatEw-29" edge="1">
          <mxGeometry width="160" relative="1" as="geometry">
            <mxPoint x="542.5" y="-580" as="sourcePoint" />
            <mxPoint x="682.5" y="-734" as="targetPoint" />
          </mxGeometry>
        </mxCell>
        <mxCell id="gMdUcFWDn8KjLpwVatEw-40" value="sc_module_name" style="swimlane;fontStyle=1;align=center;verticalAlign=top;childLayout=stackLayout;horizontal=1;startSize=26;horizontalStack=0;resizeParent=1;resizeParentMax=0;resizeLast=0;collapsible=1;marginBottom=0;" parent="1" vertex="1">
          <mxGeometry x="340" y="-270" width="160" height="112" as="geometry">
            <mxRectangle x="170" y="-500" width="105" height="26" as="alternateBounds" />
          </mxGeometry>
        </mxCell>
        <mxCell id="gMdUcFWDn8KjLpwVatEw-41" value="# m_name: const char*" style="text;strokeColor=none;fillColor=none;align=left;verticalAlign=top;spacingLeft=4;spacingRight=4;overflow=hidden;rotatable=0;points=[[0,0.5],[1,0.5]];portConstraint=eastwest;" parent="gMdUcFWDn8KjLpwVatEw-40" vertex="1">
          <mxGeometry y="26" width="160" height="26" as="geometry" />
        </mxCell>
        <mxCell id="gMdUcFWDn8KjLpwVatEw-45" value="# m_module: sc_module*" style="text;strokeColor=none;fillColor=none;align=left;verticalAlign=top;spacingLeft=4;spacingRight=4;overflow=hidden;rotatable=0;points=[[0,0.5],[1,0.5]];portConstraint=eastwest;" parent="gMdUcFWDn8KjLpwVatEw-40" vertex="1">
          <mxGeometry y="52" width="160" height="26" as="geometry" />
        </mxCell>
        <mxCell id="gMdUcFWDn8KjLpwVatEw-42" value="" style="line;strokeWidth=1;fillColor=none;align=left;verticalAlign=middle;spacingTop=-1;spacingLeft=3;spacingRight=3;rotatable=0;labelPosition=right;points=[];portConstraint=eastwest;" parent="gMdUcFWDn8KjLpwVatEw-40" vertex="1">
          <mxGeometry y="78" width="160" height="8" as="geometry" />
        </mxCell>
        <mxCell id="gMdUcFWDn8KjLpwVatEw-43" value="+ get_module(): sc_module*" style="text;strokeColor=none;fillColor=none;align=left;verticalAlign=top;spacingLeft=4;spacingRight=4;overflow=hidden;rotatable=0;points=[[0,0.5],[1,0.5]];portConstraint=eastwest;" parent="gMdUcFWDn8KjLpwVatEw-40" vertex="1">
          <mxGeometry y="86" width="160" height="26" as="geometry" />
        </mxCell>
        <mxCell id="gMdUcFWDn8KjLpwVatEw-48" value="process_handle" style="swimlane;fontStyle=1;align=center;verticalAlign=top;childLayout=stackLayout;horizontal=1;startSize=26;horizontalStack=0;resizeParent=1;resizeParentMax=0;resizeLast=0;collapsible=1;marginBottom=0;" parent="1" vertex="1">
          <mxGeometry x="30" y="-620" width="190" height="86" as="geometry">
            <mxRectangle x="65" y="-750" width="105" height="26" as="alternateBounds" />
          </mxGeometry>
        </mxCell>
        <mxCell id="gMdUcFWDn8KjLpwVatEw-49" value="# m_process: sc_process_b *" style="text;strokeColor=none;fillColor=none;align=left;verticalAlign=top;spacingLeft=4;spacingRight=4;overflow=hidden;rotatable=0;points=[[0,0.5],[1,0.5]];portConstraint=eastwest;" parent="gMdUcFWDn8KjLpwVatEw-48" vertex="1">
          <mxGeometry y="26" width="190" height="26" as="geometry" />
        </mxCell>
        <mxCell id="gMdUcFWDn8KjLpwVatEw-51" value="" style="line;strokeWidth=1;fillColor=none;align=left;verticalAlign=middle;spacingTop=-1;spacingLeft=3;spacingRight=3;rotatable=0;labelPosition=right;points=[];portConstraint=eastwest;" parent="gMdUcFWDn8KjLpwVatEw-48" vertex="1">
          <mxGeometry y="52" width="190" height="8" as="geometry" />
        </mxCell>
        <mxCell id="gMdUcFWDn8KjLpwVatEw-52" value="+ process(): sc_process_b*" style="text;strokeColor=none;fillColor=none;align=left;verticalAlign=top;spacingLeft=4;spacingRight=4;overflow=hidden;rotatable=0;points=[[0,0.5],[1,0.5]];portConstraint=eastwest;" parent="gMdUcFWDn8KjLpwVatEw-48" vertex="1">
          <mxGeometry y="60" width="190" height="26" as="geometry" />
        </mxCell>
        <mxCell id="gMdUcFWDn8KjLpwVatEw-53" value="Relation" style="endArrow=open;html=1;endSize=12;startArrow=diamondThin;startSize=14;startFill=0;edgeStyle=orthogonalEdgeStyle;" parent="1" source="gMdUcFWDn8KjLpwVatEw-35" target="gMdUcFWDn8KjLpwVatEw-48" edge="1">
          <mxGeometry relative="1" as="geometry">
            <mxPoint x="100" y="-730" as="sourcePoint" />
            <mxPoint x="260" y="-730" as="targetPoint" />
          </mxGeometry>
        </mxCell>
        <mxCell id="gMdUcFWDn8KjLpwVatEw-54" value="1" style="edgeLabel;resizable=0;html=1;align=left;verticalAlign=top;" parent="gMdUcFWDn8KjLpwVatEw-53" connectable="0" vertex="1">
          <mxGeometry x="-1" relative="1" as="geometry">
            <mxPoint x="-30" y="-26" as="offset" />
          </mxGeometry>
        </mxCell>
        <mxCell id="gMdUcFWDn8KjLpwVatEw-55" value="*" style="edgeLabel;resizable=0;html=1;align=right;verticalAlign=top;" parent="gMdUcFWDn8KjLpwVatEw-53" connectable="0" vertex="1">
          <mxGeometry x="1" relative="1" as="geometry">
            <mxPoint x="-15" y="-30" as="offset" />
          </mxGeometry>
        </mxCell>
        <mxCell id="yk40z1ae59S_Cjr2_g2M-1" value="sensitives" style="swimlane;fontStyle=1;align=center;verticalAlign=top;childLayout=stackLayout;horizontal=1;startSize=26;horizontalStack=0;resizeParent=1;resizeParentMax=0;resizeLast=0;collapsible=1;marginBottom=0;" vertex="1" parent="1">
          <mxGeometry x="180" y="-433" width="210" height="100" as="geometry">
            <mxRectangle x="65" y="-750" width="105" height="26" as="alternateBounds" />
          </mxGeometry>
        </mxCell>
        <mxCell id="yk40z1ae59S_Cjr2_g2M-2" value="# m_handle: process_handle" style="text;strokeColor=none;fillColor=none;align=left;verticalAlign=top;spacingLeft=4;spacingRight=4;overflow=hidden;rotatable=0;points=[[0,0.5],[1,0.5]];portConstraint=eastwest;" vertex="1" parent="yk40z1ae59S_Cjr2_g2M-1">
          <mxGeometry y="26" width="210" height="26" as="geometry" />
        </mxCell>
        <mxCell id="yk40z1ae59S_Cjr2_g2M-3" value="" style="line;strokeWidth=1;fillColor=none;align=left;verticalAlign=middle;spacingTop=-1;spacingLeft=3;spacingRight=3;rotatable=0;labelPosition=right;points=[];portConstraint=eastwest;" vertex="1" parent="yk40z1ae59S_Cjr2_g2M-1">
          <mxGeometry y="52" width="210" height="8" as="geometry" />
        </mxCell>
        <mxCell id="yk40z1ae59S_Cjr2_g2M-4" value="+ operator &lt;&lt;(process_handle/...): sensitive&amp;" style="text;strokeColor=none;fillColor=none;align=left;verticalAlign=top;spacingLeft=4;spacingRight=4;overflow=hidden;rotatable=0;points=[[0,0.5],[1,0.5]];portConstraint=eastwest;whiteSpace=wrap;" vertex="1" parent="yk40z1ae59S_Cjr2_g2M-1">
          <mxGeometry y="60" width="210" height="40" as="geometry" />
        </mxCell>
        <mxCell id="yk40z1ae59S_Cjr2_g2M-6" value="Relation" style="endArrow=open;html=1;endSize=12;startArrow=diamondThin;startSize=14;startFill=0;edgeStyle=orthogonalEdgeStyle;" edge="1" parent="1" source="gMdUcFWDn8KjLpwVatEw-26" target="yk40z1ae59S_Cjr2_g2M-1">
          <mxGeometry relative="1" as="geometry">
            <mxPoint x="360" y="-694" as="sourcePoint" />
            <mxPoint x="245" y="-610" as="targetPoint" />
          </mxGeometry>
        </mxCell>
        <mxCell id="yk40z1ae59S_Cjr2_g2M-7" value="1" style="edgeLabel;resizable=0;html=1;align=left;verticalAlign=top;" connectable="0" vertex="1" parent="yk40z1ae59S_Cjr2_g2M-6">
          <mxGeometry x="-1" relative="1" as="geometry">
            <mxPoint x="-30" y="-26" as="offset" />
          </mxGeometry>
        </mxCell>
        <mxCell id="yk40z1ae59S_Cjr2_g2M-9" value="Relation" style="endArrow=open;html=1;endSize=12;startArrow=diamondThin;startSize=14;startFill=0;edgeStyle=orthogonalEdgeStyle;" edge="1" parent="1" source="yk40z1ae59S_Cjr2_g2M-2" target="gMdUcFWDn8KjLpwVatEw-48">
          <mxGeometry relative="1" as="geometry">
            <mxPoint x="510" y="-431" as="sourcePoint" />
            <mxPoint x="400" y="-368" as="targetPoint" />
          </mxGeometry>
        </mxCell>
        <mxCell id="yk40z1ae59S_Cjr2_g2M-10" value="1" style="edgeLabel;resizable=0;html=1;align=left;verticalAlign=top;" connectable="0" vertex="1" parent="yk40z1ae59S_Cjr2_g2M-9">
          <mxGeometry x="-1" relative="1" as="geometry">
            <mxPoint x="-30" y="-26" as="offset" />
          </mxGeometry>
        </mxCell>
      </root>
    </mxGraphModel>
  </diagram>
</mxfile>
